<svg xmlns="http://www.w3.org/2000/svg" width="74" height="50.009" viewBox="0 0 74 50.009">
  <g id="adidas-9" transform="translate(-0.976 -1)">
    <path id="Path_53" data-name="Path 53" d="M93.835,120.46c-3.461,0-5.513-1.771-5.67-4.322h3.309c0,.85.471,1.982,2.519,2.052,1.419,0,2.2-.85,2.2-1.489-.157-.991-1.419-1.061-2.675-1.278a12.933,12.933,0,0,1-3.309-.845,3.389,3.389,0,0,1-1.733-3.049c0-2.269,1.9-4.04,5.2-4.04,3.152,0,5.2,1.631,5.351,4.111H95.882c0-.634-.157-1.7-2.047-1.7-1.262,0-2.047.211-2.2,1.132,0,1.278,2.675,1.208,4.723,1.7,1.89.5,3.152,1.7,3.152,3.407,0,3.119-2.518,4.322-5.67,4.322m-60.3-20.929L44.4,93.222l5.827,10H35.584" transform="translate(-24.529 -69.473)" fill="rgba(197,197,197,0.65)"/>
    <path id="Path_54" data-name="Path 54" d="M126.15,163.584V150.965" transform="translate(-94.297 -112.973)" fill="rgba(197,197,197,0.65)" stroke="rgba(197,197,197,0.65)" stroke-width="2.89"/>
    <path id="Path_55" data-name="Path 55" d="M3.966,44.488A3.7,3.7,0,0,0,7.583,48.1a3.593,3.593,0,0,0,3.623-3.612,3.638,3.638,0,0,0-3.623-3.612,3.749,3.749,0,0,0-3.617,3.612m3.461,6.521a6.485,6.485,0,0,1,0-12.971,6.382,6.382,0,0,1,3.78,1.132v-.991h3.152V50.721H11.206v-.78a6.468,6.468,0,0,1-3.78,1.067M49.475,33.743,34.36,7.38,45.224,1l18.9,32.743M18.452,44.488A3.6,3.6,0,0,0,22.076,48.1,3.7,3.7,0,0,0,25.7,44.488a3.754,3.754,0,0,0-3.623-3.612,3.641,3.641,0,0,0-3.623,3.612m3.466,6.521A6.486,6.486,0,1,1,25.7,39.17V33.857h3.147V50.721H25.7v-.78a6.849,6.849,0,0,1-3.78,1.067M21.763,18.79l11.021-6.233L44.91,33.743h-11.5v3.119H30.266V33.743M72.934,36.96a1.56,1.56,0,1,1,0-3.119,1.56,1.56,0,1,1,0,3.12m0-2.9A1.349,1.349,0,1,0,74.191,35.4a1.265,1.265,0,0,0-1.257-1.343" fill="rgba(197,197,197,0.65)"/>
    <path id="Path_56" data-name="Path 56" d="M176.167,136.6l-.314-.709h-.314v.709H175.3v-1.7h.709a.563.563,0,0,1,.471.5.5.5,0,0,1-.314.493l.314.709m-.628-1.484h-.314v.563h.314c.314,0,.314-.07.314-.282,0-.146,0-.281-.314-.281m-20.807,9.716a3.6,3.6,0,0,0,3.623,3.612,3.7,3.7,0,0,0,3.618-3.612,3.745,3.745,0,0,0-3.618-3.612,3.641,3.641,0,0,0-3.623,3.612m3.461,6.521a6.486,6.486,0,1,1,3.78-11.839v-.991h2.995v12.543h-2.995v-.78a6.825,6.825,0,0,1-3.781,1.067m-17.937-6.521a3.7,3.7,0,0,0,3.623,3.612,3.6,3.6,0,0,0,3.623-3.612,3.641,3.641,0,0,0-3.623-3.612,3.749,3.749,0,0,0-3.623,3.612m7.246-10.631h3.147v16.864h-3.147v-.78a5.994,5.994,0,0,1-3.623,1.067,6.486,6.486,0,1,1,0-12.971,5.626,5.626,0,0,1,3.623,1.132Z" transform="translate(-102.908 -100.344)" fill="rgba(197,197,197,0.65)"/>
  </g>
</svg>
