<svg xmlns="http://www.w3.org/2000/svg" width="165.721" height="49.891" viewBox="0 0 165.721 49.891">
  <g id="amazon-2" transform="translate(-163.5 -263.1)" opacity="0.5">
    <path id="Path_50" data-name="Path 50" d="M280.25,324.783c-9.249,6.839-22.7,10.483-34.307,10.483a62.2,62.2,0,0,1-41.931-15.976c-.841-.785-.112-1.85.953-1.233A83.284,83.284,0,0,0,278.9,322.6C280.475,321.98,281.764,323.661,280.25,324.783Z" transform="translate(-17.642 -22.274)" fill="rgba(197,197,197,0.65)" fill-rule="evenodd"/>
    <path id="Path_51" data-name="Path 51" d="M338.114,319.053c-1.177-1.514-7.848-.729-10.819-.336-.9.112-1.065-.673-.224-1.233,5.325-3.756,14.014-2.635,15.023-1.4s-.28,9.978-5.269,14.126c-.785.617-1.514.28-1.177-.561C336.768,326.844,339.291,320.622,338.114,319.053Z" transform="translate(-67.852 -20.973)" fill="rgba(197,197,197,0.65)" fill-rule="evenodd"/>
    <path id="Path_52" data-name="Path 52" d="M259.269,268.369v-3.644a.87.87,0,0,1,.93-.9h16.863a.954.954,0,0,1,.989.9v3.083c0,.5-.465,1.177-1.279,2.3l-8.722,12a19.54,19.54,0,0,1,9.594,1.962,1.661,1.661,0,0,1,.872,1.4v3.868a.872.872,0,0,1-1.221.841,19.874,19.874,0,0,0-17.793.056.908.908,0,0,1-1.221-.841v-3.7a4.069,4.069,0,0,1,.64-2.466l10.118-13.958h-8.78a.954.954,0,0,1-.989-.9ZM197.807,290.96H192.69a1.035,1.035,0,0,1-.93-.841V264.782a.954.954,0,0,1,.989-.9h4.768a.934.934,0,0,1,.93.841v3.307h.116a6.761,6.761,0,0,1,6.745-4.709c3.2,0,5.233,1.514,6.629,4.709a7.689,7.689,0,0,1,13.025-1.906c1.628,2.13,1.279,5.213,1.279,7.96v16.032a.954.954,0,0,1-.989.9h-5.059a.981.981,0,0,1-.93-.9V276.666a32.412,32.412,0,0,0-.116-4.765,2.685,2.685,0,0,0-3.024-2.186,3.424,3.424,0,0,0-3.082,2.074,15,15,0,0,0-.465,4.877v13.454a.954.954,0,0,1-.989.9h-5.117a.981.981,0,0,1-.93-.9V276.666c0-2.8.465-7.007-3.14-7.007-3.663,0-3.547,4.036-3.547,7.007v13.454a1.011,1.011,0,0,1-1.047.841Zm94.781-27.636c7.617,0,11.746,6.278,11.746,14.295,0,7.736-4.536,13.9-11.746,13.9-7.443,0-11.513-6.278-11.513-14.126C281.016,269.491,285.145,263.324,292.588,263.324Zm0,5.213c-3.78,0-4.012,4.989-4.012,8.072s-.058,9.7,3.954,9.7c3.954,0,4.187-5.325,4.187-8.577A23.685,23.685,0,0,0,295.96,271,3.2,3.2,0,0,0,292.588,268.538Zm21.573,22.423h-5.117a.981.981,0,0,1-.93-.9V264.67a.993.993,0,0,1,.989-.841h4.768a.986.986,0,0,1,.93.729v3.868h.116c1.454-3.476,3.431-5.1,6.978-5.1a6.852,6.852,0,0,1,5.989,2.971c1.337,2.018,1.337,5.438,1.337,7.9v15.976a.948.948,0,0,1-.989.785h-5.117a1.045,1.045,0,0,1-.93-.785v-13.79c0-2.8.349-6.839-3.2-6.839a3.365,3.365,0,0,0-2.966,2.018,11.262,11.262,0,0,0-.814,4.821v13.678a1.052,1.052,0,0,1-1.047.9Zm-68.324-12.108c0,1.906.058,3.532-.93,5.269a4.127,4.127,0,0,1-3.547,2.242c-1.977,0-3.14-1.458-3.14-3.588,0-4.2,3.9-4.989,7.617-4.989Zm5.175,12.052a1.082,1.082,0,0,1-1.221.112,12.513,12.513,0,0,1-2.966-3.307c-2.791,2.747-4.826,3.588-8.431,3.588-4.3,0-7.676-2.579-7.676-7.68a8.393,8.393,0,0,1,5.466-8.072c2.791-1.177,6.687-1.4,9.653-1.738v-.617c0-1.177.116-2.579-.64-3.588a3.5,3.5,0,0,0-2.849-1.289c-1.977,0-3.721.953-4.128,2.971-.116.448-.407.9-.872.9l-4.943-.5c-.407-.112-.872-.392-.756-1.009,1.163-5.83,6.571-7.568,11.455-7.568,2.5,0,5.757.617,7.734,2.466,2.5,2.242,2.268,5.269,2.268,8.521v7.68c0,2.3.989,3.307,1.919,4.6.349.448.407,1.009,0,1.289-1.1.841-2.966,2.41-4.012,3.251Zm-72.336-12.052c0,1.906.058,3.532-.93,5.269a4.127,4.127,0,0,1-3.547,2.242c-1.977,0-3.14-1.458-3.14-3.588,0-4.2,3.9-4.989,7.617-4.989Zm5.117,12.052a1.082,1.082,0,0,1-1.221.112,12.513,12.513,0,0,1-2.966-3.307c-2.791,2.747-4.826,3.588-8.431,3.588-4.3,0-7.675-2.579-7.675-7.68a8.393,8.393,0,0,1,5.466-8.072c2.791-1.177,6.687-1.4,9.652-1.738v-.617c0-1.177.116-2.579-.64-3.588a3.5,3.5,0,0,0-2.849-1.289c-1.977,0-3.721.953-4.128,2.971-.116.448-.407.9-.872.9l-4.943-.5c-.407-.112-.872-.392-.756-1.009,1.163-5.83,6.571-7.568,11.455-7.568,2.5,0,5.757.617,7.734,2.466,2.5,2.242,2.268,5.269,2.268,8.521v7.68c0,2.3.988,3.307,1.919,4.6.349.448.407,1.009,0,1.289-1.1.841-2.966,2.41-4.012,3.251Z" transform="translate(0)" fill="rgba(197,197,197,0.65)" fill-rule="evenodd"/>
  </g>
</svg>
