<svg xmlns="http://www.w3.org/2000/svg" width="176.613" height="42" viewBox="0 0 176.613 42">
  <g id="apple-music" transform="translate(-0.5 -0.5)" opacity="0.42">
    <path id="Path_49" data-name="Path 49" d="M28.362,22.762a8.777,8.777,0,0,1,4.424-7.981,9.687,9.687,0,0,0-7.5-4.158,10.716,10.716,0,0,0-4.506.841,22.1,22.1,0,0,1-3.319,1.091,9.965,9.965,0,0,1-2.993-.924,10.123,10.123,0,0,0-3.769-.924,9.338,9.338,0,0,0-4.876,1.449A10.376,10.376,0,0,0,2.221,16,14.369,14.369,0,0,0,.5,23.223a23.63,23.63,0,0,0,1.269,7.561A25.515,25.515,0,0,0,4.8,37.125a20.419,20.419,0,0,0,2.868,3.614,4.808,4.808,0,0,0,3.607,1.679,9.126,9.126,0,0,0,3.113-.884,8.881,8.881,0,0,1,3.606-.8,8.607,8.607,0,0,1,3.483.8,8.96,8.96,0,0,0,3.278.841,5.425,5.425,0,0,0,3.525-1.636,9.953,9.953,0,0,0,1.248-1.387q.78-1.027,1.5-2.1.6-.925,1.127-1.89a19.006,19.006,0,0,0,1-2.143q.2-.462.368-.944c.109-.322.218-.65.327-.986a9.32,9.32,0,0,1-5.488-8.526Zm29.71,7.488h-.2L49.553,11.235H43.019v30.68h5.695V22.045h.264l6.954,15.778h3.994l6.932-15.778h.265v19.87h5.76V11.235H66.393ZM23.2,7.221A9.267,9.267,0,0,0,25.371,1.34V.921A2.217,2.217,0,0,0,25.33.5a8.01,8.01,0,0,0-3.217.965,8.923,8.923,0,0,0-2.807,2.227,8.7,8.7,0,0,0-2.213,5.671v.4a2.134,2.134,0,0,0,.041.4q3.4.335,6.064-2.94ZM139.44,11.235h6.4v30.68h-6.4Zm25.732,4.877c3.8,0,5.8,2.922,5.8,6.069h6.138v-.652c0-5.933-4.525-10.877-11.986-10.877-7.991,0-12.758,5.259-12.758,14.228V28.34c0,8.966,4.723,14.16,12.735,14.16,7.66,0,12.009-5.014,12.009-10.587v-.674h-6.137a5.439,5.439,0,0,1-5.759,5.8c-3.886,0-6.359-2.765-6.359-8.677V24.9c0-5.892,2.5-8.791,6.313-8.791Zm-67.809,14.5c0,4.114-2.406,6.383-5.937,6.383-3.554,0-5.959-2.248-5.959-6.383V11.235H79.109V31.507c0,6.542,4.634,10.992,12.316,10.992,7.66,0,12.316-4.45,12.316-10.992V11.235H97.363V30.608Zm27.555-6.562-4.568-1.033c-2.692-.564-4.105-1.754-4.105-3.531,0-2.359,1.92-3.843,5.011-3.843,3.487,0,5.231,2,5.385,4.158h5.96c-.066-5.417-4.59-9.193-11.323-9.193-6.378,0-11.411,3.35-11.411,9.373,0,5.214,3.532,7.64,7.77,8.564L122.16,29.6c3.046.7,4.591,1.709,4.591,3.8,0,2.384-1.9,4-5.451,4-3.819,0-5.828-2.024-6-4.294h-6.137c.09,4.338,2.959,9.4,11.832,9.4,7.46,0,12.074-3.708,12.074-9.734,0-5.574-3.733-7.754-8.147-8.719Z" fill="rgba(197,197,197,0.65)"/>
  </g>
</svg>
