<svg xmlns="http://www.w3.org/2000/svg" width="87.648" height="50.878" viewBox="0 0 87.648 50.878">
  <g id="redbullenergydrink" transform="translate(0 0.1)">
    <path id="Path_57" data-name="Path 57" d="M62.728,9.5H59.016v7.285c0,2.374,2.536,4.4,5.671,4.4s5.879-2.052,5.879-4.4V9.5H66.854v6.57a2.065,2.065,0,0,1-4.127-.023ZM3.85,5.488V20.611H0V2.376H6.939a5.471,5.471,0,0,1,5.487,5.417A5.358,5.358,0,0,1,8.253,13L13.6,20.611H9.014L5.164,14.64V10.283h.9A2.481,2.481,0,0,0,8.645,7.909,2.456,2.456,0,0,0,6.132,5.488ZM39.283,20.611V1.5H35.64v9.014a5.035,5.035,0,0,0-3.6-1.475A5.709,5.709,0,0,0,26.6,14.986a5.723,5.723,0,0,0,5.441,5.948,4.6,4.6,0,0,0,3.6-1.568v1.245Zm-6.2-2.789a2.813,2.813,0,0,1-2.674-2.928,2.685,2.685,0,1,1,5.348,0,2.844,2.844,0,0,1-2.674,2.928M54.59,10.7A4.831,4.831,0,0,0,56.2,7.171,4.782,4.782,0,0,0,54.89,3.9a5.955,5.955,0,0,0-4.472-1.522h-6.2V20.611h8.022a5.454,5.454,0,0,0,5.556-5.233c-.023-2.075-.761-3.55-3.2-4.68M51.5,17.453H48.02V5.65h2.444a1.914,1.914,0,0,1,1.96,1.89,1.973,1.973,0,0,1-1.96,1.96H49.172v3.3h2.374a2.329,2.329,0,0,1-.046,4.657" transform="translate(0 -1.231)" fill="rgba(197,197,197,0.65)"/>
    <path id="Path_58" data-name="Path 58" d="M60.3,13.626a2.213,2.213,0,0,1,4.426,0ZM68.326,15.7c.023-.254.046-.507.046-.761.046-3.942-2.536-6.086-5.855-6.086a6.094,6.094,0,1,0,5.533,9.221L65.1,16.715A2.481,2.481,0,0,1,62.817,18.1a2.431,2.431,0,0,1-2.49-2.4Zm47.42-14.2h3.642V20.611h-3.642Zm6.2,0h3.642V20.611h-3.642Z" transform="translate(-43.475 -1.231)" fill="rgba(197,197,197,0.65)"/>
    <path id="Path_59" data-name="Path 59" d="M141.8,109.422a8.922,8.922,0,1,1,8.922,8.922,8.914,8.914,0,0,1-8.922-8.922" transform="translate(-109.111 -77.409)" fill="rgba(197,197,197,0.65)"/>
    <path id="Path_60" data-name="Path 60" d="M94.46,114.611c.138.069.277.138.438.231.669.461,1.107.853,2.121,1.706.3.3.645.784.9,1.083a3.791,3.791,0,0,1,1.014,1.752,12.018,12.018,0,0,0,.761,2.974,2.524,2.524,0,0,0,.346.415c.277.346.392.9.9,1.2a4.058,4.058,0,0,1,.415.254c.138.115-.092.53-.807.438.369.184.323.6-.207.622a2.353,2.353,0,0,1-1.821-.715c-.069-.069-.277.207-.645.346-.369.184-.876,0-1.268.069a10.945,10.945,0,0,1-1.245.323c-.692.023-.784-.461-.784-.876v-.184a4.084,4.084,0,0,1-.323.692.95.95,0,0,1-.484.553l-.738.092c-.576.254-1.153.438-1.752.645a1.234,1.234,0,0,1-.991-.207,1.742,1.742,0,0,1-.438-.576c-.115-.046-.277,0-.415-.046a.521.521,0,0,1-.254-.184l-.507-.853a.572.572,0,0,1,0-.392.553.553,0,0,1,.507-.277,2.775,2.775,0,0,1,1.153,0c.161-.184.415-.161.645-.207a2.3,2.3,0,0,0-.346-.323,5.119,5.119,0,0,1-2.052-.069c-.6-.138-1.107.207-1.706.115l-.184.392c-.277.3-.3.807-.715,1.014a3.186,3.186,0,0,0-.784.415,2.5,2.5,0,0,1-1.591.046,1.027,1.027,0,0,0-.53.069c-.161.115-.346.3-.53.438-.3.115-.553.369-.876.392-.184,0-.369-.115-.553-.069-.231.254-.346.669-.715.784a2.359,2.359,0,0,1-1.2-.069c-.115.046-.184.138-.323.115a2.854,2.854,0,0,1-.738-.277.588.588,0,0,1-.138-.3c0-.161.138-.3.207-.438a2.314,2.314,0,0,1,.092-.553,1.179,1.179,0,0,1,.622-.53.6.6,0,0,1,.3-.438c.3-.161.622-.53,1.014-.323l.415.346c.369-.161.277-.53.461-.83.092-.207.207-.438.438-.438.161-.023.346.023.507,0a1.356,1.356,0,0,0,.645-.346l-.023-.138a3.564,3.564,0,0,1-.323-1.5,4.032,4.032,0,0,1-1.291.023,2.031,2.031,0,0,1-1.522-1.245,2.074,2.074,0,0,1,.277-2.029,7.459,7.459,0,0,1,1.153-1.107c-.138-.046-.3-.023-.438-.069a1.724,1.724,0,0,1-1.337-1.222,1.469,1.469,0,0,1,.184-1.083c.069-.069.138-.138.254-.092a6.506,6.506,0,0,1,.669.415l.161.092c.761.254,1.775.254,2.075,1.2a1.661,1.661,0,0,1-.807,1.706,3.163,3.163,0,0,0-1.037,1.107.791.791,0,0,0,.231.876,1.065,1.065,0,0,0,1.107.138,8.851,8.851,0,0,0,1.821-1.13,3.324,3.324,0,0,1,1.936-.6,1.968,1.968,0,0,0,.853-.415,3.341,3.341,0,0,1,1.452-.9c.254-.046.507-.069.761-.092.207-.092.346-.346.507-.461.761-.669,1.775-.645,2.582-1.176a2.413,2.413,0,0,1,1.568-.553,2.623,2.623,0,0,1,.761.161Zm.761,7.838a9.794,9.794,0,0,0-1.176.184,1.894,1.894,0,0,0,.461.945c.138-.53.576-.738.715-1.13m12.979.115c.231.346.369.692.576,1.06a7.105,7.105,0,0,1,.576-.991,6.426,6.426,0,0,1-1.153-.069m.484,1.706c-.023.069-.069.092-.161.092a.816.816,0,0,1-.738.945c-.392.023-1.037-.369-1.406-.392-.392-.023-1.107.277-1.522-.346a2.1,2.1,0,0,1-1.752.83c-.323,0-.669-.184-.184-.6-1.06.346-1.06-.369-.876-.507a4.434,4.434,0,0,0,.645-.553c1.475-1.545.922-4.219,2.536-5.994a12.584,12.584,0,0,1,2.4-1.983c.438-.3.876-.738,1.291-1.037l.023.046v-.023a2.324,2.324,0,0,1,.761-.438,2.247,2.247,0,0,1,1.545.415,2.832,2.832,0,0,1,.6.576c.138.138.346.138.53.207a3.89,3.89,0,0,1,1.429.576c.3.184.553.507.922.553a3.385,3.385,0,0,1,1.222.438,3.9,3.9,0,0,0,1.429.761,6.26,6.26,0,0,1,2.9,1.36,2.137,2.137,0,0,0,1.729.438.619.619,0,0,0,.369-.392,1.4,1.4,0,0,0-.461-1.037c-.53-.622-1.452-1.153-1.337-2.052a2.068,2.068,0,0,1,1.475-1.245c.323-.115.715-.069.991-.346.138-.092.207-.415.438-.3a.683.683,0,0,1,.231.553,1.559,1.559,0,0,1-.645,1.66,2.475,2.475,0,0,1-.9.323,4.612,4.612,0,0,1,1.245,1.429,2.348,2.348,0,0,1,.277.968,1.989,1.989,0,0,1-1.037,1.637,2.417,2.417,0,0,1-1.153.254c-.161,0-.3-.046-.438-.046a3.1,3.1,0,0,1,0,1.13,4.165,4.165,0,0,0-.138.622.4.4,0,0,0,.346.115c.3,0,.669-.023.83.3.138.3.207.645.323.945.046.046.069.161.138.138.207-.184.415-.438.715-.369.277.184.553.392.83.6a.506.506,0,0,1,.115.277c.231.092.53.254.6.53.046.184.023.369.069.53.069.184.254.415.115.645l-.092.069-.876.277a.319.319,0,0,1-.207-.115c-.461-.023-1.014.115-1.383-.207a2.006,2.006,0,0,1-.392-.484.986.986,0,0,1-.945.046,3.047,3.047,0,0,0-1.936-.853,2.007,2.007,0,0,1-1.107.023,3.44,3.44,0,0,1-.945-.692,2.792,2.792,0,0,1-.507-1.337,5.95,5.95,0,0,1-1.568.023,4.165,4.165,0,0,0-1.2.138,6.673,6.673,0,0,1-1.521.115l-.254.184a.551.551,0,0,1,.323.115l.092.092a11.791,11.791,0,0,1,1.291.069.4.4,0,0,1,.231.207.365.365,0,0,1-.023.346,4.222,4.222,0,0,1-.6.83c-.069.092-.277-.023-.3.138a1.214,1.214,0,0,1-.876.853,1.122,1.122,0,0,1-.484-.046c-.484-.161-.968-.3-1.452-.438a1.847,1.847,0,0,1-.438-.3c-.207,0-.507.069-.645-.115a.674.674,0,0,1-.161-.277,2.443,2.443,0,0,1-.346-.9" transform="translate(-60.019 -87.9)" fill="rgba(197,197,197,0.65)" fill-rule="evenodd"/>
    <g id="Group_51" data-name="Group 51" transform="translate(4.611 -0.1)">
      <path id="Path_61" data-name="Path 61" d="M95.469,118.335a2.039,2.039,0,0,1,.046,1.176.043.043,0,0,1-.069,0,7.5,7.5,0,0,0-.254-.968c-.069-.184-.3-.346-.207-.553a.217.217,0,0,1,.207-.023,2.2,2.2,0,0,1,.277.369m3.689,3.227a1.139,1.139,0,0,1,.346,1.014c-.046.069-.023.207-.138.231-.046.023-.092-.023-.092-.069a1.276,1.276,0,0,0-.138-.6c-.138-.138-.3-.415-.53-.415-.161.046-.277.231-.369.346,0,.023-.023.023-.046,0-.092-.231.092-.415.161-.6.138-.138.115-.53.415-.415.207.138.254.369.392.507m-.484,2.743a.439.439,0,0,1-.115.438,1.122,1.122,0,0,1-.484.046c-.046-.023-.092-.046-.069-.092a.761.761,0,0,1,.507-.484c.046,0,.138,0,.161.092m-16.829-8.414a2.887,2.887,0,0,1,1.568.576.948.948,0,0,1,.069,1.037c-.323.553-.968.83-1.36,1.314a1.313,1.313,0,0,0-.415,1.337,1.143,1.143,0,0,0,1.014.761,3.191,3.191,0,0,0,1.752-.645,5.727,5.727,0,0,1,1.683-1.06c.415-.138.876-.069,1.291-.231a2.647,2.647,0,0,0,1.13-.784,1.975,1.975,0,0,1,1.36-.484c.461.069.715-.346,1.037-.622a5.992,5.992,0,0,1,1.844-.807,8.782,8.782,0,0,0,1.2-.669,1.847,1.847,0,0,1,1.314-.046,3.5,3.5,0,0,1,.761.415l1.867,1.568a.269.269,0,0,0,.138.138,18.084,18.084,0,0,1,1.522,1.983,3.173,3.173,0,0,1,.277.784,10.728,10.728,0,0,0,.715,2.9c.092.138.277.254.369.392.3.415.484.945.968,1.222l.277.138a.07.07,0,0,1,0,.092l-.046.046a1.363,1.363,0,0,1-1.314-.669,1.754,1.754,0,0,0-.853-.922.08.08,0,0,0-.046.023c.046.138.184.231.231.346a2.825,2.825,0,0,1,.369.807c.092.3.415.507.669.669l.369.184a.087.087,0,0,1,.023.138l-.046.023a2.041,2.041,0,0,1-1.614-.645.513.513,0,0,0-.392-.207,1.544,1.544,0,0,1-.922.507,2.156,2.156,0,0,0-1.153.069,3,3,0,0,1-.991.254.439.439,0,0,1-.415-.231c0-.207-.138-.438-.023-.645l.231-.346c0-.046-.023-.092-.069-.092-.092-.023-.254.138-.3-.023.023-.346.369-.576.6-.807a1.471,1.471,0,0,1,.369-.761.074.074,0,0,0-.069-.069,5.93,5.93,0,0,1-.922.115,1.16,1.16,0,0,1-.876.138c-.069-.046-.046-.115-.023-.161a1.989,1.989,0,0,0,.346-1.522c-.023-.023-.023-.069-.069-.069s-.046.046-.069.069a3.161,3.161,0,0,1-.507,1.337,1.611,1.611,0,0,1-.807.277.2.2,0,0,0-.138.161c0,.184.115.3.184.461l.6,1.107a2.83,2.83,0,0,1-.184.876c.023.046.069.023.115,0a1.626,1.626,0,0,0,.438-.715.586.586,0,0,0-.069-.346l-.622-1.245c.046-.069.138-.069.207-.092a1.4,1.4,0,0,1,.415.115,4.014,4.014,0,0,0,.553,1.083c.046.207.115.484-.023.645a5.145,5.145,0,0,1-.461.761c-.161.161-.392.138-.622.161h-.069a9.25,9.25,0,0,1-1.729.669.763.763,0,0,1-.761-.138,2.228,2.228,0,0,1-.438-.6c-.161-.207-.415-.023-.6-.138a8.741,8.741,0,0,1-.461-.784.191.191,0,0,1,.069-.184,3.117,3.117,0,0,1,.669-.092.718.718,0,0,1,.576.161c.277.323.392.761.807.968a1.643,1.643,0,0,0,.876-.207c.161-.092.346-.231.346-.438a1.286,1.286,0,0,0-.645-.968,3.081,3.081,0,0,1-.968-.761,2.01,2.01,0,0,1-.231-.576.109.109,0,0,0-.138-.023c-.138.115-.023.323-.023.461.023.092.069.207.023.277-.207.161-.484.069-.738.092a10.974,10.974,0,0,0-1.522-.184c-.507.023-1.2.369-1.568-.138a2.93,2.93,0,0,1-.046-1.545.1.1,0,0,0-.092-.092.084.084,0,0,0-.115.046c-.138.484-.161,1.014-.277,1.522a2.269,2.269,0,0,1-.945,1.13,3.564,3.564,0,0,1-1.337.323,2.591,2.591,0,0,0-2.236.945c-.046.069-.115.138-.092.231.023.023.092.046.115.023a2.671,2.671,0,0,1,2.236-.9,2.522,2.522,0,0,0,2.19-.853,3.927,3.927,0,0,0,.346-.507c.092,0,.161.115.231.161.023.254-.184.415-.277.622a1.451,1.451,0,0,1-.461.645,3.4,3.4,0,0,0-.761.392,1.409,1.409,0,0,1-.876.092,2.284,2.284,0,0,0-1.245,0c-.184.115-.346.323-.53.438-.254.115-.484.323-.784.3-.207-.046-.461-.184-.645,0-.231.207-.277.576-.576.715-.346.184-.715,0-1.06-.023a1.593,1.593,0,0,1,.323-.922.724.724,0,0,0,.369-.138,1.542,1.542,0,0,0,.323-.438,2.081,2.081,0,0,0,.83-.645,3.086,3.086,0,0,1,.369-.853l.115-.046.622-.046a3.2,3.2,0,0,0,.715-.415.332.332,0,0,0,.069-.3,5.008,5.008,0,0,1-.277-.83c-.069-.323-.023-.645-.069-1.014-.023-.023-.046-.092-.092-.092a3.308,3.308,0,0,1-1.268.138,1.833,1.833,0,0,1-1.5-1.107,1.786,1.786,0,0,1,.231-1.729,9.142,9.142,0,0,1,1.291-1.2c.069-.046.069-.138.092-.207,0-.092-.092-.161-.161-.207-.277-.069-.6.023-.876-.092a1.414,1.414,0,0,1-.922-1.13.9.9,0,0,1,.138-.6,2.778,2.778,0,0,0,.991.692m-1.383,10.3v.069a8.744,8.744,0,0,0-.277.922,1.944,1.944,0,0,1-.553-.161c-.046-.046,0-.092,0-.138.207-.184.138-.415.184-.669a.515.515,0,0,1,.3-.323c.161.023.254.184.346.3m1.014-.968a1.437,1.437,0,0,1-.53.645.45.45,0,0,1-.3-.023c-.046-.046-.138-.092-.138-.184.023-.092-.023-.207.069-.254a4.076,4.076,0,0,0,.553-.392c.046-.023.138-.046.161,0,.092.069.161.115.184.207m11.55-.092c.023.092.161.207.069.3a.909.909,0,0,1-.645.207c-.184-.138-.161-.392-.323-.576-.046-.138-.254-.138-.207-.277l.069-.046a4.215,4.215,0,0,0,.761-.046c.254-.023.184.277.277.438m14.57-3.758a2.546,2.546,0,0,1,.346.6.152.152,0,0,1-.023.138c-.023.046-.069.092-.138.046-.161-.046-.138-.3-.346-.277-.138,0-.231.115-.346.184-.207.184-.484.369-.53.645-.046.092-.023.254-.115.3a.088.088,0,0,1-.115-.069,1.233,1.233,0,0,1,.346-.968,5.118,5.118,0,0,0,.645-.761.261.261,0,0,1,.277.161m.092,3.066c.046.092.138.207.069.323-.092.069-.254.023-.369.023a.449.449,0,0,1-.184-.415.127.127,0,0,1,.046-.115.545.545,0,0,1,.438.184m3.458-7.054c.069.092,0,.184-.046.254a5.484,5.484,0,0,0-.945.991,1.281,1.281,0,0,0-.207.392c0,.023-.023.023-.046.023a1,1,0,0,1,.069-.576,2.775,2.775,0,0,1,.922-1.153c.046-.023.207-.046.254.069m1.314-1.475c.254.161.346.507.645.576a6.458,6.458,0,0,1,1.475.461,4.772,4.772,0,0,1,.922.645,6,6,0,0,0,.922.231,4.375,4.375,0,0,1,1.176.692c.507.392,1.222.346,1.8.6a20.756,20.756,0,0,1,2.513,1.429,1.738,1.738,0,0,0,1.545.069.837.837,0,0,0,.415-.876c-.161-.945-1.2-1.429-1.683-2.213a1.048,1.048,0,0,1-.115-.645,1.783,1.783,0,0,1,1.083-.876c.323-.161.738-.115,1.037-.3a1.463,1.463,0,0,0,.277-.231c.069,0,.069.069.092.115a1.377,1.377,0,0,1-.484,1.452,1.572,1.572,0,0,1-.622.231c-.184.069-.553-.069-.53.254.046.161.184.254.3.369a3.179,3.179,0,0,1,1.314,2.052,1.645,1.645,0,0,1-.968,1.475,2.289,2.289,0,0,1-1.36.115c-.115-.023-.3-.138-.392.023-.023.184.092.323.092.484a2.4,2.4,0,0,1-.046.991c-.046.231-.277.507-.069.738.207.323.622.231.968.277.184.023.254.231.3.369.069.184.069.392.138.53,0,.346.392.484.576.715.231.254.438.692.83.669a2.618,2.618,0,0,1,.254.853l-.046.046c-.323,0-.761.092-.991-.138-.277-.184-.369-.692-.784-.553a.656.656,0,0,1-.645.092,2.736,2.736,0,0,1-.53-.369,2.473,2.473,0,0,0-2.006-.461c-.415.115-.738-.184-1.06-.369a1.31,1.31,0,0,1-.645-1.037l-.069-.484a.153.153,0,0,1,.092-.115h.069a2.586,2.586,0,0,0,1.36,1.429c.576.231,1.107-.069,1.729.046a3.067,3.067,0,0,1,1.475.784c.046,0,.069-.023.092-.069v-.046a2.383,2.383,0,0,0-2.121-.945,1.738,1.738,0,0,1-1.821-.692,2.9,2.9,0,0,1-.461-1.107,6.724,6.724,0,0,0-.323-1.383c-.046-.023-.092-.069-.138-.046l-.046.069a2.992,2.992,0,0,1,.046,1.429.856.856,0,0,1-.83.53c-.346.023-.669-.046-1.037-.046-.83-.023-1.568.3-2.421.231.069-.207.207-.415.138-.645-.023-.046-.092-.046-.138-.046-.161.092-.138.3-.231.438a1.456,1.456,0,0,1-.876.645,4.743,4.743,0,0,0-.692.669.341.341,0,0,0-.046.3c.161.415.645.461,1.014.576a.418.418,0,0,0,.438-.207c.161-.254.184-.669.553-.715h.807a.31.31,0,0,1,.161.138l-.023.115c-.184.207-.254.507-.484.645-.138.046-.3,0-.392.115a.875.875,0,0,1-.392.715c-.207.184-.507.092-.738.023-.438-.161-.876-.254-1.314-.392-.184-.046-.254-.277-.461-.323-.184-.046-.392.092-.553-.069a2.4,2.4,0,0,1-.184-.576,1.53,1.53,0,0,1-.138-.461.58.58,0,0,1,.046-.346l.6-1.083a.363.363,0,0,1,.161-.161,1.686,1.686,0,0,1,.438.161l-.023.069-.622.945a1.036,1.036,0,0,0,.138.9c.023.023.046.069.069.046a1.612,1.612,0,0,1,0-.576,2.089,2.089,0,0,1,.254-.507l.484-.715a.448.448,0,0,0-.046-.415c-.207-.207-.507-.277-.692-.553a3.27,3.27,0,0,1-.484-1.821.17.17,0,0,0-.115-.138c-.046-.023-.092.046-.115.069a2.7,2.7,0,0,0,.069,1.36,4.076,4.076,0,0,0,.346.876c.023.046-.023.115-.069.138a4.264,4.264,0,0,1-.945-.046,2.69,2.69,0,0,1-1.06-.645c-.046-.023-.069.023-.092.046.092.461.6.738.761,1.153.092.346.438.6.507.968a.19.19,0,0,1-.092.138c-.115.023-.231-.046-.346.023-.023.207.115.415.023.6-.115.184-.277.392-.484.392-.415-.138-.83-.323-1.245-.438a5.436,5.436,0,0,0-.876.046c-.277-.046-.461-.3-.669-.438a.174.174,0,0,0-.184.023,2.374,2.374,0,0,1-1.66.945c-.046,0-.069-.046-.069-.092V125.8a2.642,2.642,0,0,0,.807-.945c.092-.323.369-.553.484-.853.023-.046-.023-.069-.069-.092l-.069.046a7.483,7.483,0,0,0-.853,1.107,1.086,1.086,0,0,1-1.014.323c-.046-.023-.046-.092-.023-.138,1.429-.876,1.591-2.444,1.983-3.873a5.9,5.9,0,0,1,1.222-2.674,38.355,38.355,0,0,1,3.712-3,.972.972,0,0,1,.6-.323,1.98,1.98,0,0,1,1.475.53M125.623,126.1c.115.161.069.415.115.6.023.138.207.254.115.392l-.507.161c-.092,0-.046-.115-.092-.161a4.351,4.351,0,0,0-.207-.784c-.023-.161.138-.277.254-.369.115-.046.207.092.323.161m-1.176-1.037a2.919,2.919,0,0,1,.576.484c.023.092-.046.184-.092.254a.382.382,0,0,1-.277.115.352.352,0,0,1-.277-.161,2.181,2.181,0,0,1-.323-.53c.069-.115.231-.3.392-.161m-11.112-.184a2.076,2.076,0,0,1-.184.645c-.069.138-.277.092-.415.069-.138-.046-.369-.069-.392-.277a.786.786,0,0,1,.161-.507,6.48,6.48,0,0,0,.669-.023c.092,0,.161.023.161.092" transform="translate(-65.869 -88.62)" fill="rgba(197,197,197,0.65)" fill-rule="evenodd"/>
      <path id="Path_62" data-name="Path 62" d="M20,50.525h3.2v-.669H20.738V47.6h2.374v-.669H20.738v-1.66H23.2V44.6H20Zm6.34,0h.738V46.1l4.472,4.68V44.6h-.738v4.38L26.34,44.3Zm8.391,0h3.181v-.669H35.469V47.6h2.374v-.669H35.469v-1.66h2.444V44.6H34.731Zm8.022-2.582a1.614,1.614,0,0,0,1.429-1.66,1.642,1.642,0,0,0-.784-1.429,3.023,3.023,0,0,0-1.568-.277h-.9v5.948h.738V48.012h.3l1.752,2.513h.9Zm-1.083-2.7h.207c.738,0,1.614.138,1.614,1.06,0,.945-.83,1.083-1.568,1.083h-.231V45.246Zm8.276,2.282V48.2h1.545a1.968,1.968,0,0,1-1.936,1.752,2.413,2.413,0,0,1-2.305-2.421,2.381,2.381,0,0,1,2.374-2.421,2.357,2.357,0,0,1,1.867.968l.53-.507a3.1,3.1,0,1,0-2.513,5.049,2.756,2.756,0,0,0,2.812-2.882V47.5H49.946Zm6.432.415v2.582h.738V47.943L59.052,44.6H58.2l-1.452,2.536L55.271,44.6h-.853Zm7.769,2.582h1.2c1.867,0,3.366-.968,3.366-3,0-1.983-1.522-2.951-3.343-2.951H64.147Zm.738-5.256h.254c1.522,0,2.812.553,2.812,2.305,0,1.729-1.314,2.282-2.812,2.282h-.254Zm8.461,2.674a1.614,1.614,0,0,0,1.429-1.66,1.642,1.642,0,0,0-.784-1.429,3.023,3.023,0,0,0-1.568-.277h-.9v5.948h.738V48.012h.3l1.752,2.513h.9Zm-1.083-2.7h.207c.738,0,1.614.138,1.614,1.06,0,.945-.83,1.083-1.568,1.083h-.231V45.246Zm5.279-.645h.738v5.948h-.738Zm3.712,5.925h.738V46.1l4.449,4.68V44.6H85.7v4.38L81.252,44.3Zm8.922-3.366V44.6h-.738v5.925h.738V48.058l.3-.3,2.236,2.766H93.7l-2.72-3.274L93.655,44.6h-.968ZM101.308.154a1.343,1.343,0,0,1,1.037.438,1.467,1.467,0,0,1,.438,1.037,1.343,1.343,0,0,1-.438,1.037,1.377,1.377,0,0,1-1.037.438,1.427,1.427,0,0,1-1.06-.438,1.467,1.467,0,0,1-.438-1.037,1.343,1.343,0,0,1,.438-1.037,1.52,1.52,0,0,1,1.06-.438m1.729,1.475A1.672,1.672,0,0,0,102.53.407,1.727,1.727,0,0,0,101.308-.1a1.636,1.636,0,0,0-1.222.507,1.636,1.636,0,0,0-.507,1.222,1.636,1.636,0,0,0,.507,1.222,1.725,1.725,0,0,0,2.444,0,1.688,1.688,0,0,0,.507-1.222M101.77,1.26a.3.3,0,0,1-.207.3,1.069,1.069,0,0,1-.323.046h-.3V.914h.277a.963.963,0,0,1,.415.069.3.3,0,0,1,.138.277M100.617.684v1.89h.323V1.836h.254a.688.688,0,0,1,.369.069.467.467,0,0,1,.184.438v.231h.323l-.023-.023c0-.023-.023-.046-.023-.092V2.182a.88.88,0,0,0-.092-.3.5.5,0,0,0-.323-.184.778.778,0,0,0,.277-.092.419.419,0,0,0,.184-.369.48.48,0,0,0-.3-.484,1.46,1.46,0,0,0-.53-.069Z" transform="translate(-20 0.1)" fill="rgba(197,197,197,0.65)"/>
    </g>
  </g>
</svg>
