<svg xmlns="http://www.w3.org/2000/svg" width="179.568" height="50" viewBox="0 0 179.568 50">
  <g id="yahoo" transform="translate(-1248 -4029.021)">
    <path id="yahoo-7" d="M33.567,12.368H22.982l-6.2,14.775-6.2-14.775H-.01Q5.758,26.1,11.525,39.842L7.264,49.99H17.85c5.293-12.607,10.458-25.1,15.717-37.621Zm134.6-12.3h11.392l-10.3,24.891H157.864Zm-7.5,27.292a6.423,6.423,0,1,1-6.423,6.423A6.423,6.423,0,0,1,160.665,27.361Zm-22.4-15.739a14.443,14.443,0,1,1-14.443,14.443A14.443,14.443,0,0,1,138.266,11.621Zm0,8.8a5.64,5.64,0,1,1-5.64,5.64A5.64,5.64,0,0,1,138.266,20.425Zm-31.006-8.8A14.443,14.443,0,1,1,92.817,26.064,14.443,14.443,0,0,1,107.26,11.621Zm0,8.8a5.64,5.64,0,1,1-5.64,5.64,5.64,5.64,0,0,1,5.64-5.64ZM64.62-.01h9.551V14.838s1.671-3.217,7.191-3.217,9.06,2.428,9.13,12.373V40.206H80.941V23.994a3.385,3.385,0,1,0-6.769.1l0,16.116H64.62V-.01Zm-13,12.378h9.551V40.206H51.616V37.582a11.765,11.765,0,0,1-7.695,2.925c-7.043,0-12.753-6.466-12.753-14.443s5.71-14.443,12.753-14.443a11.763,11.763,0,0,1,7.695,2.925V12.369Zm-5.379,8.056a5.64,5.64,0,1,1-5.64,5.64,5.64,5.64,0,0,1,5.64-5.64Z" transform="translate(1248.01 4029.031)" fill="rgba(197,197,197,0.65)" fill-rule="evenodd" opacity="0.63"/>
  </g>
</svg>
